<svg width="64.20001220703125px" height="55.63999023437499px" xmlns="http://www.w3.org/2000/svg" viewBox="172.89999389648438 12.180004882812504 154.20001220703125 125.63999023437499" style="background: rgba(0, 0, 0, 0) none repeat scroll 0% 0%;" preserveAspectRatio="xMidYMid"><defs><linearGradient id="editing-gradient-gradient" x1="0" x2="1" y1="0.5" y2="0.5" gradientUnits="objectBoundingBox"><stop offset="0" stop-color="#f0f"></stop><stop offset="1" stop-color="#0ff"></stop></linearGradient></defs><g><g transform="translate(200.9749994277954, 97.71999931335449)"><path d="M50.43 0L45.95 0L45.95-37.31L29.38-8.45L26.75-8.45L10.18-37.31L10.18 0L5.70 0L5.70-45.44L10.30-45.44L28.03-14.34L45.89-45.44L50.43-45.44L50.43 0ZM66.30-3.97L92.35-3.97L92.35 0L61.82 0L61.82-45.44L91.78-45.44L91.78-41.47L66.30-41.47L66.30-25.09L88.51-25.09L88.51-21.31L66.30-21.31L66.30-3.97Z" fill="url(#editing-gradient-gradient)"></path></g></g><style>text {
  font-size: 64px;
  font-family: Arial Black;
  dominant-baseline: central;
  text-anchor: middle;
}</style></svg>