<svg width="32" height="33" viewBox="0 0 32 33" fill="none" xmlns="http://www.w3.org/2000/svg">
<path d="M26.68 20.8471C25.04 20.8471 23.4533 20.576 21.9733 20.088C21.5067 19.9254 20.9867 20.0474 20.6267 20.4134L18.5333 23.0836C14.76 21.2538 11.2267 17.7973 9.34667 13.8258L11.9467 11.5757C12.3067 11.1962 12.4133 10.6675 12.2667 10.1931C11.7733 8.68855 11.52 7.07555 11.52 5.40832C11.52 4.67637 10.92 4.06641 10.2 4.06641H5.58667C4.86667 4.06641 4 4.39172 4 5.40832C4 18.0006 14.3067 28.4648 26.68 28.4648C27.6267 28.4648 28 27.6109 28 26.8654V22.189C28 21.4571 27.4 20.8471 26.68 20.8471Z" fill="white"/>
</svg>
