<svg width="38" height="42" viewBox="0 0 38 42" fill="none" xmlns="http://www.w3.org/2000/svg">
<g filter="url(#filter0_d_35_64)">
<path d="M28.5 14.667C28.5 9.42616 24.2409 5.16699 19 5.16699C13.7592 5.16699 9.50002 9.42616 9.50002 14.667C9.50002 21.792 19 32.0837 19 32.0837C19 32.0837 28.5 21.792 28.5 14.667ZM15.8334 14.667C15.8334 12.9253 17.2584 11.5003 19 11.5003C20.7417 11.5003 22.1667 12.9253 22.1667 14.667C22.1667 16.4087 20.7575 17.8337 19 17.8337C17.2584 17.8337 15.8334 16.4087 15.8334 14.667ZM7.91669 33.667V36.8337H30.0834V33.667H7.91669Z" fill="#373737"/>
</g>
<defs>
<filter id="filter0_d_35_64" x="-5" y="-3" width="48" height="48" filterUnits="userSpaceOnUse" color-interpolation-filters="sRGB">
<feFlood flood-opacity="0" result="BackgroundImageFix"/>
<feColorMatrix in="SourceAlpha" type="matrix" values="0 0 0 0 0 0 0 0 0 0 0 0 0 0 0 0 0 0 127 0" result="hardAlpha"/>
<feOffset/>
<feGaussianBlur stdDeviation="2.5"/>
<feColorMatrix type="matrix" values="0 0 0 0 0.737255 0 0 0 0 0.737255 0 0 0 0 0.737255 0 0 0 0.67 0"/>
<feBlend mode="normal" in2="BackgroundImageFix" result="effect1_dropShadow_35_64"/>
<feBlend mode="normal" in="SourceGraphic" in2="effect1_dropShadow_35_64" result="shape"/>
</filter>
</defs>
</svg>
