<svg width="308" height="361" viewBox="0 0 308 361" fill="none" xmlns="http://www.w3.org/2000/svg">
<g style="mix-blend-mode:overlay" opacity="0.43">
<path d="M154 300.667H25.6667V270.5H99.4584C90.09 228.116 61.7284 194.932 25.6667 183.922C33.88 181.508 42.4784 180 51.3334 180C108.057 180 154 233.998 154 300.667ZM282.333 183.922C274.12 181.508 265.522 180 256.667 180C219.065 180 186.34 203.832 168.373 239.277C172.095 249.232 175.175 259.64 176.972 270.5C178.64 280.304 179.538 290.41 179.538 300.667H205.205H282.205V270.5H208.413C217.91 228.116 246.272 194.932 282.333 183.922ZM200.713 165.218C210.723 133.694 229.332 107.298 253.202 89.8017C198.147 91.9133 154 144.856 154 210.167C154 210.317 154 210.468 154 210.468C166.192 191.312 182.233 175.777 200.713 165.218ZM146.557 132.487C135.777 99.455 113.96 72.7575 85.9834 59.3333C104.463 87.3883 115.5 122.382 115.5 160.542C115.5 163.71 115.115 166.727 114.987 169.743C120.505 173.363 125.638 177.587 130.643 182.112C133.338 164.313 138.985 147.571 146.557 132.487Z" fill="#323232" fill-opacity="0.34"/>
</g>
</svg>
