<svg width="64" height="65" viewBox="0 0 64 65" fill="none" xmlns="http://www.w3.org/2000/svg">
<g filter="url(#filter0_d_24_8)">
<path d="M32 29.0663C30.3733 29.0663 29.0666 30.373 29.0666 31.9997C29.0666 33.6263 30.3733 34.933 32 34.933C33.6266 34.933 34.9333 33.6263 34.9333 31.9997C34.9333 30.373 33.6266 29.0663 32 29.0663ZM32 5.33301C17.28 5.33301 5.33331 17.2797 5.33331 31.9997C5.33331 46.7197 17.28 58.6663 32 58.6663C46.72 58.6663 58.6666 46.7197 58.6666 31.9997C58.6666 17.2797 46.72 5.33301 32 5.33301ZM37.84 37.8397L16 47.9997L26.16 26.1597L48 15.9997L37.84 37.8397Z" fill="white"/>
</g>
<defs>
<filter id="filter0_d_24_8" x="-4" y="-2" width="72" height="72" filterUnits="userSpaceOnUse" color-interpolation-filters="sRGB">
<feFlood flood-opacity="0" result="BackgroundImageFix"/>
<feColorMatrix in="SourceAlpha" type="matrix" values="0 0 0 0 0 0 0 0 0 0 0 0 0 0 0 0 0 0 127 0" result="hardAlpha"/>
<feOffset dy="2"/>
<feGaussianBlur stdDeviation="2"/>
<feColorMatrix type="matrix" values="0 0 0 0 0 0 0 0 0 0 0 0 0 0 0 0 0 0 0.3 0"/>
<feBlend mode="normal" in2="BackgroundImageFix" result="effect1_dropShadow_24_8"/>
<feBlend mode="normal" in="SourceGraphic" in2="effect1_dropShadow_24_8" result="shape"/>
</filter>
</defs>
</svg>
