<svg width="32" height="33" viewBox="0 0 32 33" fill="none" xmlns="http://www.w3.org/2000/svg">
<path d="M28.7733 21.8095L27.32 11.4266C26.9467 8.75633 24.6933 6.77734 22.04 6.77734H9.96001C7.30667 6.77734 5.05334 8.75633 4.68001 11.4266L3.22667 21.8095C2.93334 23.8969 4.52001 25.7539 6.58667 25.7539C7.49334 25.7539 8.34667 25.3879 8.98667 24.7373L12 21.6875H20L23 24.7373C23.64 25.3879 24.5067 25.7539 25.4 25.7539C27.48 25.7539 29.0667 23.8969 28.7733 21.8095ZM14.6667 14.9102H12V17.6211H10.6667V14.9102H8.00001V13.5547H10.6667V10.8438H12V13.5547H14.6667V14.9102ZM20 13.5547C19.2667 13.5547 18.6667 12.9447 18.6667 12.1992C18.6667 11.4537 19.2667 10.8438 20 10.8438C20.7333 10.8438 21.3333 11.4537 21.3333 12.1992C21.3333 12.9447 20.7333 13.5547 20 13.5547ZM22.6667 17.6211C21.9333 17.6211 21.3333 17.0111 21.3333 16.2656C21.3333 15.5201 21.9333 14.9102 22.6667 14.9102C23.4 14.9102 24 15.5201 24 16.2656C24 17.0111 23.4 17.6211 22.6667 17.6211Z" fill="white"/>
</svg>
